<svg version="1.1" id="Layer_1" xmlns="http://www.w3.org/2000/svg" xmlns:xlink="http://www.w3.org/1999/xlink" x="0px" y="0px"
	 width="100%" viewBox="0 0 864 1024" enable-background="new 0 0 864 1024" xml:space="preserve">
<path fill="#000000" opacity="1.000000" stroke="none" 
	d="
M812.344238,292.988708 
	C812.343994,327.145355 811.962769,360.810699 812.504028,394.461182 
	C812.769348,410.950134 812.997009,427.416748 812.135071,443.870880 
	C810.925842,466.953949 808.953552,489.997559 806.109863,512.928223 
	C803.144409,536.841370 798.713257,560.500549 792.552307,583.860840 
	C786.897217,605.303650 779.983154,626.255432 770.874451,646.444214 
	C762.927368,664.058533 753.099792,680.631958 742.804565,697.005737 
	C724.723938,725.761536 703.484558,751.964539 680.285156,776.612793 
	C664.752258,793.115784 647.644470,808.002380 630.095093,822.323547 
	C614.743225,834.851379 598.716431,846.522522 582.317932,857.637390 
	C562.102356,871.339539 541.473389,884.405762 520.760498,897.358093 
	C498.454712,911.306458 475.727966,924.475952 452.681671,937.124695 
	C447.143646,940.164124 441.503052,943.017029 435.902710,945.942505 
	C434.387878,946.733765 432.842621,947.297119 431.169281,946.313171 
	C411.681580,934.853088 391.161652,925.235962 371.951385,913.289551 
	C346.801941,897.649658 321.728210,881.901367 297.052338,865.501770 
	C271.099396,848.253540 245.826538,830.135315 222.291977,809.726746 
	C196.066360,786.984558 171.944305,762.153381 151.007431,734.384460 
	C131.529877,708.551086 113.465210,681.776611 99.838844,652.321106 
	C90.620323,632.393860 82.989311,611.857361 77.414833,590.539001 
	C72.243912,570.764038 67.036507,551.030457 64.284554,530.736572 
	C60.977715,506.350677 57.680798,481.986450 56.628876,457.342255 
	C52.747280,366.404999 56.075809,275.425781 54.661995,184.478226 
	C54.578335,179.096588 57.833149,178.584793 61.426949,177.777832 
	C83.832703,172.746704 106.255806,167.792618 128.654861,162.732040 
	C156.571487,156.424835 184.371384,149.591110 211.736542,141.221313 
	C238.765198,132.954453 265.997681,125.196541 292.207520,114.484703 
	C313.930542,105.606606 335.399567,96.136589 356.227203,85.259010 
	C381.770172,71.918755 406.791718,57.713608 430.208832,40.863400 
	C433.445587,38.534321 435.569061,39.477924 438.169189,41.348923 
	C460.927643,57.725494 485.117767,71.755127 509.920441,84.739540 
	C537.667664,99.265457 566.389282,111.536430 596.008301,121.764809 
	C621.476196,130.559692 647.208618,138.508865 673.075439,145.986649 
	C697.964355,153.181763 723.174255,159.219009 748.453247,164.910782 
	C768.237854,169.365463 788.058899,173.661270 807.892517,177.892853 
	C812.108215,178.792267 812.364258,181.607559 812.360779,184.994019 
	C812.329712,215.493042 812.347412,245.992096 812.349731,276.491150 
	C812.350159,281.824524 812.345581,287.157867 812.344238,292.988708 
M484.703186,105.836166 
	C481.210815,103.900101 477.655640,102.068253 474.237335,100.009232 
	C461.972748,92.621712 449.757141,85.152954 437.516083,77.726257 
	C435.382446,76.431755 433.500366,75.210136 430.693451,76.924767 
	C414.226501,86.983742 397.968719,97.369324 381.003876,106.632637 
	C357.168091,119.647675 332.596832,131.096710 307.353729,140.920593 
	C276.685760,152.855667 245.347122,162.943466 213.757889,172.259109 
	C194.456558,177.951065 174.986816,182.990143 155.515045,187.974670 
	C134.746765,193.291092 113.719048,197.621124 92.731743,202.035477 
	C87.595520,203.115784 85.835083,205.005798 85.833191,210.535126 
	C85.820992,246.193924 85.692665,281.857544 85.653664,317.513641 
	C85.597809,368.584747 83.596436,419.686584 88.665428,470.721954 
	C91.890671,503.194153 96.021057,535.415283 103.338104,567.231018 
	C107.598763,585.757019 113.419655,603.815613 120.349319,621.418396 
	C127.292427,639.055237 136.353867,655.774841 145.856171,672.236755 
	C156.713654,691.046387 169.466278,708.550781 182.805786,725.546021 
	C193.361710,738.994812 205.192642,751.470032 217.302399,763.645752 
	C232.727280,779.154785 249.285782,793.335815 266.677124,806.476074 
	C294.306274,827.351624 323.184662,846.451965 352.410645,865.031128 
	C377.684814,881.098145 403.482483,896.264587 429.564697,910.965210 
	C432.416901,912.572754 434.914398,912.890625 437.901245,910.973694 
	C443.492615,907.385132 449.267090,904.065613 455.080994,900.842651 
	C484.361053,884.611389 512.713928,866.848877 540.795105,848.662964 
	C571.976196,828.469482 602.246338,807.002991 629.887329,782.060547 
	C650.558655,763.407349 669.909363,743.524048 687.052979,721.499512 
	C707.870117,694.755676 726.616455,666.768738 741.361511,636.157227 
	C756.089417,605.581421 764.021545,572.947998 770.361328,539.933228 
	C772.984802,526.271301 774.978760,512.403870 776.430908,498.485596 
	C778.503174,478.623962 781.358521,458.763702 781.498230,438.830566 
	C782.033020,362.505920 781.846924,286.176300 782.078186,209.849014 
	C782.092834,205.023026 780.227478,203.199890 775.743958,202.185455 
	C761.312317,198.920151 746.794861,196.074112 732.397156,192.613159 
	C688.235046,181.997284 644.552612,169.844376 601.419495,155.537476 
	C561.337830,142.242752 522.497986,126.269485 484.703186,105.836166 
z"/>
<path fill="#000000" opacity="1.000000" stroke="none" 
	d="
M362.995605,411.010529 
	C362.434265,391.077911 367.850800,373.735443 380.921448,359.031738 
	C399.260864,338.400909 433.011505,327.040253 462.897736,341.462036 
	C489.452820,354.276367 503.665649,375.179504 504.273224,404.933319 
	C504.398956,411.090698 504.521606,417.248444 504.707825,423.404144 
	C504.821075,427.149445 506.431000,428.977600 510.583252,428.941833 
	C515.930115,428.895721 520.140869,431.672241 522.982544,436.163269 
	C527.194214,442.819427 523.893738,450.695557 516.054443,451.565613 
	C507.127838,452.556335 498.091522,452.112579 489.103912,451.663635 
	C487.116333,451.564331 485.862396,450.110443 484.359100,449.090393 
	C479.861053,446.038391 473.108124,446.476196 469.548279,449.991211 
	C466.554993,452.946808 466.137604,460.469116 468.742340,464.516907 
	C471.698395,469.110809 480.482300,469.920013 484.110382,465.483093 
	C486.734009,462.274597 489.489197,461.427216 493.513763,461.536957 
	C517.091858,462.179932 516.755066,461.688385 534.689575,445.872528 
	C543.052612,438.497375 540.614075,429.673889 540.938843,420.993469 
	C540.997192,419.435883 539.156677,418.724274 537.963379,417.836792 
	C530.078613,411.972687 527.059021,402.799927 530.110718,394.009949 
	C532.845398,386.132935 541.551270,380.171448 550.342957,380.155518 
	C558.018188,380.141602 566.343994,386.599915 568.926270,394.570648 
	C571.754028,403.299072 568.716431,413.100311 561.015015,417.812500 
	C557.605957,419.898346 556.415405,422.162262 556.949890,425.887421 
	C558.716431,438.198181 555.213684,448.212646 544.969727,456.018738 
	C539.586548,460.120789 535.416626,465.777405 530.328308,470.316681 
	C526.687134,473.564941 527.260132,477.391998 527.617188,481.340546 
	C527.680542,482.040527 528.309387,482.890808 528.924011,483.305298 
	C531.936096,485.336548 544.014648,483.499329 546.562134,480.666199 
	C552.116333,474.489258 558.542664,470.635986 567.259705,472.730225 
	C576.044983,474.840820 581.644043,480.730408 583.077820,489.370148 
	C584.431396,497.525970 580.962158,505.487213 574.244629,509.640991 
	C566.551208,514.398254 557.675537,514.008057 550.353760,508.558929 
	C549.421143,507.864838 548.263977,507.208344 547.758728,506.246613 
	C544.325989,499.712738 538.427612,500.029846 532.304810,500.128784 
	C519.810242,500.330750 507.309784,500.140472 494.812012,500.182739 
	C489.162903,500.201843 483.892944,502.532104 478.188934,502.867157 
	C474.462128,503.086090 471.188965,506.158417 471.548615,510.882935 
	C471.901672,515.521240 473.654327,519.331116 478.615448,520.650208 
	C482.989288,521.813110 488.590820,519.536255 490.534119,516.238525 
	C491.775604,514.131714 490.563019,512.118164 490.611816,510.273224 
	C492.143005,508.661407 493.902893,509.006805 495.513672,509.000427 
	C504.511993,508.964813 513.512207,509.100800 522.508240,508.954956 
	C525.891174,508.900146 527.209412,510.014038 527.309509,513.523071 
	C528.020142,538.442627 519.674438,559.780212 502.541290,577.829102 
	C484.087799,597.268921 461.258514,609.479736 436.352966,618.347229 
	C434.384064,619.048218 432.469055,619.280884 430.515472,618.480774 
	C405.389282,608.190674 381.363495,596.238525 363.207489,575.081909 
	C355.613037,566.232361 350.123016,556.247803 345.961761,545.448120 
	C345.664093,544.675720 345.444702,543.856506 345.324005,543.039062 
	C345.256561,542.582336 345.467438,542.084473 345.662292,540.991455 
	C355.033905,540.991455 364.461578,540.833801 373.874481,541.135681 
	C375.583649,541.190491 377.220032,543.145996 378.911835,544.188538 
	C382.429474,546.356262 389.276245,546.041565 392.620758,543.329956 
	C396.248932,540.388184 396.848663,536.444641 395.932495,532.040649 
	C395.076233,527.924622 392.310852,525.451111 388.587952,524.720520 
	C384.660675,523.949646 380.245636,524.215576 377.576538,527.708496 
	C375.178101,530.847168 372.351349,531.279602 368.882385,531.231689 
	C360.885315,531.121033 352.885590,531.187317 344.887024,531.210327 
	C340.094574,531.224121 330.325745,539.676697 329.489868,544.402283 
	C328.888580,547.801575 331.020416,549.718994 333.294403,551.437988 
	C338.224121,555.164368 340.892670,560.099976 341.832947,566.135681 
	C343.214386,575.002808 337.654266,584.109924 328.481140,587.828430 
	C320.127930,591.214417 310.475433,588.463440 305.296417,581.220703 
	C298.408936,571.588745 299.526733,560.342529 308.729492,552.667847 
	C312.383423,549.620544 314.611694,546.642395 313.990112,541.746155 
	C313.638885,538.979675 314.862823,536.538330 316.824707,534.531189 
	C323.802094,527.392944 330.681793,520.155151 337.801544,513.161804 
	C341.163757,509.859283 340.267029,505.995422 339.500763,502.432129 
	C338.803802,499.191223 335.406830,500.477509 333.075653,500.204651 
	C328.017700,499.612701 324.141937,500.791077 320.545258,505.191345 
	C315.869324,510.912048 309.228577,514.245361 301.453094,512.502991 
	C293.057343,510.621735 287.119263,505.719421 284.925507,496.979797 
	C282.854462,488.728851 287.323883,479.182922 295.464722,474.685974 
	C303.014465,470.515594 313.868317,472.206726 319.530396,479.272614 
	C322.563293,483.057495 325.898102,483.993652 330.289978,483.942596 
	C342.619659,483.799255 354.953522,483.973694 367.281921,483.780365 
	C371.279144,483.717682 374.512085,484.528076 377.750305,487.160248 
	C383.980469,492.224304 392.967499,490.331055 395.574402,483.882812 
	C397.513184,479.087189 395.992828,473.753143 391.921722,471.067444 
	C387.232941,467.974274 380.666077,468.075134 377.231476,472.040497 
	C374.928772,474.699097 372.462372,475.185760 369.360260,475.155060 
	C361.195740,475.074188 353.028229,475.022583 344.865448,475.163544 
	C341.404694,475.223267 339.790558,473.850983 340.227295,470.445251 
	C341.164795,463.134949 340.988495,455.776733 340.627014,448.483124 
	C340.051300,436.866333 347.301483,430.255371 356.886932,428.570312 
	C361.679260,427.727814 363.463989,425.721283 363.004089,420.995728 
	C362.699158,417.862000 362.978485,414.671448 362.995605,411.010529 
M445.500000,427.918640 
	C453.824554,427.891785 462.151855,427.729156 470.472382,427.899078 
	C474.264008,427.976501 475.973053,426.830841 475.661530,422.800140 
	C475.200592,416.835327 474.678925,410.831451 474.875854,404.867126 
	C475.685394,380.352509 450.227203,359.238495 426.090912,364.067291 
	C409.544006,367.377716 393.454956,383.773956 392.272522,400.394745 
	C391.765808,407.517242 392.399261,414.714874 392.075012,421.858459 
	C391.867126,426.438416 393.511810,428.049683 398.048950,427.999054 
	C413.531006,427.826294 429.016083,427.924500 445.500000,427.918640 
M440.564575,476.810669 
	C432.825928,473.922791 425.791656,475.083466 419.920624,480.953918 
	C411.389496,489.484192 411.901642,501.540833 421.217834,511.149231 
	C423.384735,513.384094 424.381073,515.336792 423.731384,518.570862 
	C421.904297,527.666016 420.693573,536.886902 418.793274,545.964722 
	C417.941620,550.033264 419.313843,551.049194 422.966888,550.976807 
	C428.286896,550.871338 433.616028,551.114380 438.931305,550.926636 
	C442.297363,550.807800 445.841614,551.813293 449.293945,549.893921 
	C448.990936,547.787842 448.793732,545.815552 448.413177,543.879272 
	C447.004456,536.711914 445.489319,529.565247 444.104370,522.393433 
	C443.115540,517.272827 443.229767,513.024597 447.698364,508.622955 
	C457.498596,498.969635 453.947784,483.431152 440.564575,476.810669 
M474.585052,564.648315 
	C474.285858,566.642334 473.986633,568.636292 473.642212,570.931641 
	C476.054718,570.098267 477.248505,568.719543 478.621216,567.525635 
	C485.160980,561.837830 486.391205,553.113098 490.770447,546.159973 
	C492.692261,543.108704 491.149200,538.662903 487.767731,536.492371 
	C484.182648,534.191223 480.022125,533.288574 476.154846,536.328979 
	C472.856598,538.922119 470.792969,542.534546 472.869446,546.359619 
	C475.980103,552.089966 475.276398,557.885071 474.585052,564.648315 
M561.214478,486.642090 
	C555.819275,490.455658 554.991821,495.087433 559.342590,497.585846 
	C561.740417,498.962769 564.331970,499.532776 566.754211,497.521118 
	C568.764832,495.851318 570.343384,493.787292 569.281128,491.072510 
	C568.025330,487.863098 565.584717,486.061890 561.214478,486.642090 
M303.233612,498.453033 
	C306.842773,499.335907 309.582367,498.221741 310.620331,494.570557 
	C311.617645,491.062439 310.166840,488.229370 306.783112,486.962769 
	C303.523926,485.742767 300.892822,487.282074 299.289093,490.162292 
	C297.137726,494.025848 299.294159,496.367950 303.233612,498.453033 
M315.533325,569.957275 
	C316.597809,573.854797 319.197418,575.535767 323.051056,574.524841 
	C326.654449,573.579529 327.218292,570.575317 326.880341,567.353394 
	C326.534668,564.057495 324.088837,562.599792 321.316193,562.760437 
	C317.648041,562.972778 315.125916,565.034790 315.533325,569.957275 
M550.974854,406.517426 
	C554.375732,405.279968 555.254211,402.658142 554.867554,399.368408 
	C554.604614,397.131866 553.320129,395.816528 551.141602,395.287567 
	C547.409729,394.381470 544.066101,396.217529 543.433350,399.558960 
	C542.730225,403.272003 545.443604,406.111664 550.974854,406.517426 
z"/>
</svg>